<?xml version="1.0" encoding="UTF-8"?>
<svg id="Layer_1" xmlns="http://www.w3.org/2000/svg" xmlns:xlink="http://www.w3.org/1999/xlink" version="1.1" viewBox="0 0 149.8 150">
  <!-- Generator: Adobe Illustrator 29.2.0, SVG Export Plug-In . SVG Version: 2.1.0 Build 108)  -->
  <defs>
    <style>
      .st0 {
        fill: #fff;
      }
    </style>
  </defs>
  <g id="Logo_mark-2">
    <path class="st0" d="M131,71.3c-2-29.1-26.3-52.2-55.9-52.2s-53.9,23.1-55.9,52.2h6.6c2-25.5,23.3-45.7,49.3-45.7s47.3,20.2,49.3,45.7c0,0,6.6,0,6.6,0ZM111.4,71.3h-6.4c-1.9-14.8-14.6-26.3-29.9-26.3s-28,11.5-29.9,26.3h-6.5c1.9-18.3,17.5-32.7,36.3-32.7,18.8,0,34.4,14.3,36.3,32.7ZM6.4,71.3H0C2,31.7,34.9,0,75.1,0s73.1,31.7,75.1,71.3h-6.4C141.7,35.2,111.7,6.4,75.1,6.4S8.4,35.2,6.4,71.3ZM86.5,79h63.6c-2,39.7-34.9,71.3-75.1,71.3S2,118.7,0,79h6.4c2,36.1,32,64.9,68.7,64.9s63-25.4,68-58.5h-12.9c-4.8,26-27.7,45.8-55.1,45.8s-53.9-23.1-55.9-52.2h6.6c2,25.5,23.3,45.7,49.3,45.7s43.7-16.9,48.4-39.2h-13.3c-4.4,15.2-18.5,26.3-35.1,26.3s-34.4-14.3-36.3-32.7h6.5c1.9,14.8,14.6,26.3,29.9,26.3s24.1-8.3,28.3-19.9h-16.8v-6.4h0Z"/>
  </g>
</svg>