<svg id="Layer_1" data-name="Layer 1" xmlns="http://www.w3.org/2000/svg" xmlns:xlink="http://www.w3.org/1999/xlink" viewBox="0 0 149.81 150">
  <defs>
    <style>
      .cls-1 {
        fill: url(#linear-gradient);
      }
    </style>
    <linearGradient id="linear-gradient" x1="-20.15" y1="75.17" x2="120.49" y2="75.17" gradientUnits="userSpaceOnUse">
      <stop offset="0" stop-color="#0077b6"/>
      <stop offset="1" stop-color="#00d69f"/>
    </linearGradient>
    <symbol id="Logo_mark" data-name="Logo mark" viewBox="0 0 150.14 150.33">
      <g id="Logo_mark-2" data-name="Logo mark">
        <path class="cls-1" d="M124.39,71.33c-1.97-25.5-23.33-45.65-49.32-45.65s-47.35,20.15-49.32,45.65h-6.6c1.98-29.13,26.29-52.23,55.92-52.23s53.94,23.1,55.92,52.23h-6.6ZM75.07,38.64c-18.85,0-34.4,14.35-36.33,32.69h6.45c1.89-14.81,14.57-26.3,29.88-26.3s27.99,11.49,29.88,26.3h6.45c-1.92-18.35-17.48-32.69-36.33-32.69ZM75.07,6.4c36.63,0,66.66,28.79,68.66,64.93h6.41C148.13,31.66,115.23,0,75.07,0S2,31.66,0,71.33h6.41C8.41,35.19,38.44,6.4,75.07,6.4ZM86.54,79.01v6.4h16.83c-4.2,11.58-15.28,19.89-28.3,19.89-15.31,0-27.99-11.49-29.88-26.3h-6.45c1.92,18.35,17.48,32.69,36.33,32.69,16.59,0,30.62-11.12,35.06-26.29h13.33c-4.73,22.38-24.62,39.24-48.39,39.24-25.99,0-47.35-20.15-49.32-45.65h-6.6c1.98,29.13,26.29,52.23,55.92,52.23,27.41,0,50.27-19.79,55.09-45.82h12.9c-4.96,33.08-33.56,58.53-68,58.53-36.63,0-66.66-28.79-68.66-64.93H0c2,39.67,34.91,71.33,75.07,71.33s73.06-31.65,75.07-71.32h-63.6Z"/>
      </g>
    </symbol>
  </defs>
  <use width="150.14" height="150.33" transform="" xlink:href="#Logo_mark"/>
</svg>