<svg id="Layer_1" data-name="Layer 1" xmlns="http://www.w3.org/2000/svg" xmlns:xlink="http://www.w3.org/1999/xlink" viewBox="0 0 616.3 150">
  <defs>
    <style>
      .cls-1 {
        fill: url(#linear-gradient);
      }

      .cls-2 {
        fill: #fff;
      }
    </style>
    <linearGradient id="linear-gradient" x1="-20.15" y1="75.17" x2="120.49" y2="75.17" gradientUnits="userSpaceOnUse">
      <stop offset="0" stop-color="#0077b6"/>
      <stop offset="1" stop-color="#00d69f"/>
    </linearGradient>
    <symbol id="Logo_mark" data-name="Logo mark" viewBox="0 0 150.14 150.33">
      <g id="Logo_mark-2" data-name="Logo mark">
        <path class="cls-1" d="M124.39,71.33c-1.97-25.5-23.33-45.65-49.32-45.65s-47.35,20.15-49.32,45.65h-6.6c1.98-29.13,26.29-52.23,55.92-52.23s53.94,23.1,55.92,52.23h-6.6ZM75.07,38.64c-18.85,0-34.4,14.35-36.33,32.69h6.45c1.89-14.81,14.57-26.3,29.88-26.3s27.99,11.49,29.88,26.3h6.45c-1.92-18.35-17.48-32.69-36.33-32.69ZM75.07,6.4c36.63,0,66.66,28.79,68.66,64.93h6.41C148.13,31.66,115.23,0,75.07,0S2,31.66,0,71.33h6.41C8.41,35.19,38.44,6.4,75.07,6.4ZM86.54,79.01v6.4h16.83c-4.2,11.58-15.28,19.89-28.3,19.89-15.31,0-27.99-11.49-29.88-26.3h-6.45c1.92,18.35,17.48,32.69,36.33,32.69,16.59,0,30.62-11.12,35.06-26.29h13.33c-4.73,22.38-24.62,39.24-48.39,39.24-25.99,0-47.35-20.15-49.32-45.65h-6.6c1.98,29.13,26.29,52.23,55.92,52.23,27.41,0,50.27-19.79,55.09-45.82h12.9c-4.96,33.08-33.56,58.53-68,58.53-36.63,0-66.66-28.79-68.66-64.93H0c2,39.67,34.91,71.33,75.07,71.33s73.06-31.65,75.07-71.32h-63.6Z"/>
      </g>
    </symbol>
  </defs>
  <use width="150.14" height="150.33" transform="" xlink:href="#Logo_mark"/>
  <g>
    <polygon class="cls-2" points="294.28 51.41 294.28 39.99 240.47 39.99 240.47 51.41 261.18 51.41 261.18 110.74 273.57 110.74 273.57 51.41 294.28 51.41"/>
    <path class="cls-2" d="M319.06,62.15c-3.81,0-6.91,1-9.29,3-1.63,1.37-2.85,3.01-3.66,4.92l-.69-7.05h-11.13v47.72h11.81v-23.23c0-4.65,1.23-8.11,3.68-10.4,2.45-2.29,5.84-3.44,10.16-3.44h4.36v-10.94c-.97-.26-1.87-.42-2.71-.48-.84-.06-1.68-.1-2.52-.1Z"/>
    <path class="cls-2" d="M358.79,100.48c-2.1,1.23-4.76,1.84-7.98,1.84-4.39,0-7.69-1.32-9.92-3.97-1.77-2.11-2.83-5.02-3.19-8.72l35.95-.08v-3.58c0-5.03-.95-9.35-2.86-12.97-1.9-3.61-4.6-6.44-8.08-8.47s-7.65-3.05-12.48-3.05-8.78,1.08-12.39,3.24c-3.61,2.16-6.42,5.15-8.42,8.95-2,3.81-3,8.19-3,13.16s1.03,9.24,3.1,13.02c2.06,3.77,4.92,6.74,8.57,8.9,3.64,2.16,7.82,3.24,12.53,3.24,6.26,0,11.44-1.48,15.53-4.45,4.1-2.97,6.66-7.07,7.7-12.29h-10.94c-.65,2.26-2.02,4-4.11,5.23ZM343.31,72.89c1.9-1.16,4.24-1.74,7.02-1.74,3.55,0,6.37,1,8.47,3,2.09,2,3.15,4.65,3.15,7.94h-24.04c.24-1.46.61-2.78,1.1-3.97.97-2.32,2.4-4.07,4.31-5.23Z"/>
    <path class="cls-2" d="M412.94,63.75c-3.1-1.52-6.81-2.27-11.13-2.27s-8.02.71-11.28,2.13c-3.26,1.42-5.78,3.4-7.55,5.95-1.78,2.55-2.66,5.57-2.66,9.05h10.07c0-2.52.93-4.47,2.81-5.86,1.87-1.39,4.55-2.08,8.03-2.08,2,0,3.74.31,5.23.92,1.48.61,2.63,1.58,3.44,2.9.81,1.32,1.21,3.08,1.21,5.27v1.06l-14.32,1.16c-5.68.45-10.05,1.98-13.11,4.6-3.07,2.61-4.6,6.11-4.6,10.5s1.47,8.05,4.4,10.79c2.93,2.74,6.92,4.11,11.95,4.11,3.74,0,7.08-.77,10.02-2.32,2.94-1.55,4.92-3.55,5.95-6l.87,7.07h10.36v-29.04c0-4.45-.84-8.18-2.52-11.18-1.68-3-4.07-5.26-7.16-6.77ZM411.2,91.38c0,3.68-1.08,6.55-3.24,8.61-2.16,2.07-5.08,3.1-8.76,3.1-2.58,0-4.58-.55-6-1.65-1.42-1.1-2.13-2.71-2.13-4.84,0-1.94.77-3.5,2.32-4.69,1.55-1.19,4.16-1.95,7.84-2.27l9.97-.77v2.52Z"/>
    <path class="cls-2" d="M456.5,83.44l-8.61-2.03c-4.13-.97-6.19-2.77-6.19-5.42,0-1.74.64-3.13,1.94-4.16,1.29-1.03,3.1-1.55,5.42-1.55s4.13.6,5.42,1.79c1.29,1.19,1.94,2.82,1.94,4.89h11.23c-.07-3.1-.86-5.81-2.37-8.13-1.52-2.32-3.63-4.13-6.34-5.42-2.71-1.29-5.84-1.94-9.39-1.94s-6.94.6-9.78,1.79c-2.84,1.19-5.08,2.92-6.73,5.18-1.65,2.26-2.47,4.94-2.47,8.03,0,3.81,1.05,6.79,3.15,8.95,2.1,2.16,5.31,3.73,9.63,4.69l8.61,2.03c2.13.45,3.58,1.13,4.35,2.03.77.9,1.16,1.94,1.16,3.1,0,1.74-.73,3.13-2.18,4.16-1.45,1.03-3.6,1.55-6.44,1.55-2.65,0-4.71-.61-6.19-1.84-1.48-1.22-2.26-2.87-2.32-4.94h-11.23c0,4.71,1.76,8.52,5.28,11.42,3.52,2.9,8.24,4.36,14.18,4.36,3.93,0,7.42-.63,10.45-1.89,3.03-1.26,5.39-3.06,7.06-5.42,1.68-2.35,2.52-5.14,2.52-8.37,0-3.68-1.02-6.52-3.05-8.52-2.03-2-5.05-3.45-9.05-4.36Z"/>
    <path class="cls-2" d="M508.57,87.99c0,4.52-.91,7.89-2.71,10.11-1.81,2.23-4.58,3.34-8.32,3.34-3.29,0-5.81-1-7.55-3-1.74-2-2.61-5.26-2.61-9.78v-25.74h-11.81v29.91c0,5.81,1.55,10.45,4.64,13.94,3.1,3.48,7.39,5.23,12.87,5.23,3.23,0,6.26-.71,9.1-2.13,2.84-1.42,4.97-3.26,6.39-5.52l.87,6.39h10.94v-47.81h-11.81v25.07Z"/>
    <path class="cls-2" d="M555.89,62.15c-3.81,0-6.91,1-9.29,3-1.63,1.37-2.85,3.01-3.66,4.92l-.69-7.05h-11.13v47.72h11.81v-23.23c0-4.65,1.22-8.11,3.68-10.4,2.45-2.29,5.84-3.44,10.16-3.44h4.35v-10.94c-.97-.26-1.87-.42-2.71-.48-.84-.06-1.68-.1-2.52-.1Z"/>
    <path class="cls-2" d="M604.1,62.93l-12.95,34.87-12.31-34.87h-12.49l19.23,49.87-1.32,3.56c-.65,1.87-1.44,3.29-2.37,4.26-.94.97-1.98,1.63-3.15,1.98-1.16.35-2.52.53-4.06.53h-7.07v9.78c1.29.39,2.66.66,4.11.82,1.45.16,3.02.24,4.69.24,3.94,0,7.23-1,9.87-3,2.64-2,4.84-5.19,6.58-9.58l23.42-58.46h-12.2Z"/>
    <path class="cls-2" d="M204.26,81.9h21.39v.29c0,2.78-.47,5.29-1.4,7.55-.94,2.26-2.24,4.18-3.92,5.76-1.68,1.58-3.73,2.78-6.15,3.58-2.42.81-5.21,1.21-8.37,1.21-4.32,0-8.15-.93-11.47-2.81-3.32-1.87-5.92-4.63-7.79-8.28-1.87-3.64-2.81-8.08-2.81-13.31s.87-9.63,2.61-13.4,4.26-6.73,7.55-8.86c3.29-2.13,7.26-3.19,11.91-3.19,4.26,0,8.03.98,11.32,2.95,3.29,1.97,5.48,5.05,6.58,9.24h13.07c-.65-4.84-2.37-9.03-5.18-12.58-2.81-3.55-6.4-6.31-10.79-8.28-4.39-1.97-9.29-2.95-14.71-2.95-7.03,0-13.21,1.58-18.54,4.74-5.32,3.16-9.45,7.5-12.39,13.02-2.94,5.52-4.4,11.86-4.4,19.02s1.44,13.65,4.31,19.07c2.87,5.42,6.84,9.63,11.9,12.63,5.06,3,10.89,4.5,17.47,4.5,3.55,0,6.84-.47,9.87-1.4,3.03-.93,5.66-2.24,7.89-3.92,1.54-1.16,2.78-2.44,3.75-3.82l.75,8.08h10.45v-39.78h-32.91v10.94Z"/>
  </g>
</svg>