<?xml version="1.0" encoding="UTF-8"?>
<svg xmlns="http://www.w3.org/2000/svg" xmlns:xlink="http://www.w3.org/1999/xlink" viewBox="0 0 1366 768">
  <defs>
    <style>
      .cls-1 {
        font-family: Satoshi-Light, Satoshi;
        font-size: 70.32px;
        font-weight: 300;
        letter-spacing: -.02em;
      }

      .cls-1, .cls-2 {
        fill: #fff;
      }

      .cls-3 {
        fill: url(#GSmart_Gradient);
      }
    </style>
    <symbol id="GSmart_White" data-name="GSmart White" viewBox="0 0 1065.92 243.39">
      <g>
        <path class="cls-2" d="M176.18,114.08c6.7,2.48,6.7,11.96,0,14.44l-15.5,5.73c-11.88,4.39-21.24,13.76-25.64,25.64l-5.73,15.5c-2.48,6.7-11.96,6.7-14.44,0l-5.73-15.5c-4.39-11.88-13.76-21.24-25.64-25.64l-15.5-5.73c-6.7-2.48-6.7-11.96,0-14.44l15.5-5.73c11.88-4.39,21.24-13.76,25.64-25.64l5.73-15.5c2.48-6.7,11.96-6.7,14.44,0l5.73,15.5c4.39,11.88,13.76,21.24,25.64,25.64l15.5,5.73ZM273.39,84.65l-11.29-4.18c-8.65-3.2-15.47-10.02-18.67-18.67l-4.18-11.29c-1.81-4.88-8.71-4.88-10.52,0l-4.18,11.29c-3.2,8.65-10.02,15.47-18.67,18.67l-11.29,4.18c-4.88,1.81-4.88,8.71,0,10.52l11.29,4.18c7.09,2.62,12.95,7.68,16.6,14.18,1.39,2.48,2.11,5.3,2.11,8.15,0,0,0,.02,0,.03,0,58.09-48.38,105.09-106.97,102.82-53.41-2.07-96.69-45.35-98.75-98.75-2.27-58.58,44.73-106.97,102.82-106.97,14.89,0,29.25,3.11,42.68,9.24,10.23,4.67,19.58,10.96,27.81,18.69,3.78,3.56,9.73,3.38,13.28-.41,3.56-3.78,3.37-9.73-.41-13.28-9.72-9.14-20.78-16.58-32.88-22.1C156.29,3.68,139.3,0,121.7,0,53,0-2.59,57.22.09,126.51c2.45,63.16,53.63,114.35,116.79,116.79,69.29,2.68,126.51-52.9,126.51-121.6,0,0,0-.02,0-.03,0-2.85.72-5.66,2.11-8.14,3.65-6.5,9.51-11.56,16.6-14.18l11.29-4.18c4.88-1.81,4.88-8.71,0-10.52Z"/>
        <path class="cls-2" d="M352.24,122.89c0,35.5,20.47,54.88,49.87,54.88,27.66,0,44.42-15.24,44.42-40.72v-.65h-48.13v-24.61h74.04v89.5h-23.52l-1.74-18.29c-8.71,12.2-26.78,20.69-48.34,20.69-44.64,0-75.78-32.45-75.78-81.44s31.57-82.75,79.48-82.75c36.37,0,64.46,21.12,69.03,53.57h-29.4c-5.01-18.73-21.12-27.44-40.29-27.44-31.58,0-49.65,22.86-49.65,57.27ZM544.53,39.27c32.23,0,52.7,17.86,53.57,46.6h-27.87c-.65-13.72-10.45-21.78-26.13-21.78-17.2,0-28.31,8.28-28.31,21.56,0,11.32,6.1,17.64,19.38,20.69l25.04,5.45c27.22,5.88,40.5,19.82,40.5,43.55,0,29.62-23.08,48.78-58.14,48.78s-56.18-18.07-56.84-46.6h27.87c.22,13.5,11.11,21.56,28.96,21.56s30.27-8.06,30.27-21.34c0-10.67-5.44-16.99-18.51-19.82l-25.26-5.66c-27-5.88-41.16-21.34-41.16-45.73,0-27.87,23.08-47.26,56.62-47.26ZM616.61,201.29v-107.57h24.39l2.18,12.63c5.45-8.93,16.33-15.9,31.79-15.9,16.33,0,27.66,8.06,33.32,20.47,5.44-12.41,18.07-20.47,34.41-20.47,26.13,0,40.5,15.68,40.5,40.5v70.34h-26.35v-63.37c0-15.46-8.28-23.52-20.91-23.52s-22.65,8.28-22.65,25.91v60.97h-26.57v-63.59c0-15.02-8.06-23.08-20.69-23.08s-22.87,8.27-22.87,25.7v60.97h-26.57ZM799.1,170.59c0-19.82,14.37-32.23,39.85-34.19l32.23-2.4v-2.39c0-14.59-8.71-20.47-22.21-20.47-15.68,0-24.39,6.53-24.39,17.86h-22.65c0-23.3,19.16-38.54,48.34-38.54s46.82,15.68,46.82,45.51v65.33h-23.3l-1.96-15.9c-4.57,11.1-19.16,18.73-35.93,18.73-22.87,0-36.8-13.28-36.8-33.54ZM871.4,157.74v-5.66l-22.43,1.74c-16.55,1.52-22.86,6.97-22.86,15.68,0,9.8,6.53,14.59,18.51,14.59,16.33,0,26.79-9.8,26.79-26.35ZM985.3,117.89h-9.8c-19.16,0-31.14,10.23-31.14,31.14v52.26h-26.57v-107.36h25.04l1.52,15.68c4.57-10.67,14.81-17.86,29.18-17.86,3.7,0,7.4.44,11.76,1.53v24.61ZM1018.44,201.29v-85.36h-20.69v-22.21h20.69v-33.54h26.57v33.54h20.91v22.21h-20.91v85.36h-26.57Z"/>
      </g>
    </symbol>
    <linearGradient id="GSmart_Gradient" data-name="GSmart Gradient" x1="1300.78" y1="729.56" x2="82.78" y2="48.56" gradientUnits="userSpaceOnUse">
      <stop offset="0" stop-color="#ffd600"/>
      <stop offset="1" stop-color="#ff007a"/>
    </linearGradient>
  </defs>
  <g id="Layer_1" data-name="Layer 1">
    <rect class="cls-3" x="-.33" y="-.03" width="1366.01" height="768"/>
  </g>
  <g id="Staplines">
    <g>
      <use width="1065.92" height="243.39" transform="translate(225.71 340.84) scale(.35)" xlink:href="#GSmart_White"/>
      <text class="cls-1" transform="translate(628.17 412.04)"><tspan x="0" y="0">Risk Management</tspan></text>
    </g>
  </g>
</svg>