<svg width="492" height="432" viewBox="0 0 492 432" fill="none" xmlns="http://www.w3.org/2000/svg">
<path d="M312.252 202.021C324.126 206.412 324.126 223.2 312.252 227.591L284.784 237.738C263.73 245.512 247.143 262.104 239.345 283.142L229.19 310.59C224.795 322.454 207.995 322.454 203.6 310.59L193.446 283.142C185.666 262.104 169.06 245.53 148.007 237.738L120.538 227.591C108.664 223.2 108.664 206.412 120.538 202.021L148.007 191.874C169.06 184.1 185.648 167.507 193.446 146.47L203.6 119.022C207.995 107.158 224.795 107.158 229.19 119.022L239.345 146.47C247.125 167.507 263.73 184.082 284.784 191.874L312.252 202.021ZM484.526 149.905L464.518 142.503C449.189 136.837 437.102 124.76 431.431 109.442L424.024 89.4495C420.816 80.8079 408.588 80.8079 405.38 89.4495L397.973 109.442C392.302 124.76 380.216 136.837 364.886 142.503L344.878 149.905C336.23 153.111 336.23 165.329 344.878 168.534L364.886 175.936C377.451 180.576 387.836 189.536 394.304 201.047C396.768 205.438 398.044 210.432 398.044 215.479C398.044 215.479 398.044 215.514 398.044 215.532C398.044 318.399 312.306 401.627 208.474 397.608C113.822 393.942 37.1216 317.301 33.4709 222.739C29.448 119.005 112.74 33.3145 215.686 33.3145C242.074 33.3145 267.523 38.8218 291.323 49.6769C309.452 57.9466 326.022 69.0851 340.607 82.7735C347.306 89.0776 357.851 88.7589 364.142 82.0475C370.451 75.3538 370.114 64.8174 363.415 58.531C346.19 42.3457 326.589 29.1708 305.146 19.3959C277.004 6.52199 246.894 0.00537109 215.704 0.00537109C93.9554 0.00537109 -4.56009 101.332 0.189353 224.032C4.53119 335.877 95.2313 426.525 207.162 430.846C329.956 435.592 431.361 337.17 431.361 215.514C431.361 215.514 431.361 215.479 431.361 215.461C431.361 210.414 432.637 205.438 435.1 201.047C441.568 189.536 451.953 180.576 464.518 175.936L484.526 168.534C493.174 165.329 493.174 153.111 484.526 149.905Z" fill="#FF007A"/>
</svg>
